<svg width="55" height="55" viewBox="0 0 55 55" fill="none" xmlns="http://www.w3.org/2000/svg">
<path fill-rule="evenodd" clip-rule="evenodd" d="M16.0521 1.07129C7.15625 2.75102 2.58408 9.40763 2.58408 20.8228C2.55278 32.5183 14.3416 39.7035 26.4723 35.38L28.7119 34.5712C30.547 36.4997 30.8581 36.4997 28.8986 37.6816C27.3432 38.6148 27.4986 39.5791 28.4942 39.9525C29.8315 40.45 37.9501 48.2572 39.0387 50.1547C43.0514 57.1534 53.0669 54.6961 52.3827 49.2215C52.0716 46.7332 50.1742 43.8405 47.9346 41.7876C45.4463 39.4857 44.0466 37.6196 42.2112 34.1357C40.4384 30.7453 38.852 29.9987 36.5504 31.3987C35.5549 31.9895 35.4616 32.0206 34.9328 31.5231C33.8442 30.5588 33.9065 29.9057 35.2438 27.8838C40.3451 20.0453 40.6249 13.2023 36.1147 7.75892C29.8315 0.169374 24.4505 2.9067 28.121 5.27062C37.0479 10.9937 36.5815 22.6269 27.0634 31.3987C21.7755 36.2819 11.1376 33.6693 8.40053 26.8263C4.07683 15.9396 11.1999 1.56907 22.7397 3.87094C26.7211 4.89723 28.3075 -1.23031 16.0521 1.07129ZM14.8081 8.8165C13.4705 9.93615 14.3414 10.9004 16.8297 9.18964C18.5717 8.00793 19.4116 7.78994 20.998 8.16334C23.0819 8.63008 24.3572 8.10128 23.704 7.0437C23.4863 6.67031 18.9138 5.36397 14.8078 8.8165H14.8081ZM27.2809 8.41209C25.6014 8.31874 25.166 9.25195 26.3167 10.4652C27.7476 11.9893 30.6093 12.238 30.4537 10.8383C30.3606 9.8741 28.5562 8.47441 27.2809 8.41209ZM38.1055 34.4778C38.3545 35.5044 40.8115 39.1126 42.1181 40.45C43.7045 42.0364 44.3887 43.0939 46.4416 45.3335C50.6096 49.9059 45.6327 54.4471 41.7137 48.724C36.7679 41.5076 32.1644 39.237 32.2267 38.3971C32.3201 37.3395 37.8878 33.607 38.1055 34.4778Z" fill="#232A33"/>
</svg>
